<mxfile host="app.diagrams.net" agent="Mozilla/5.0 (Windows NT 10.0; Win64; x64; rv:135.0) Gecko/20100101 Firefox/135.0" version="26.0.16">
  <diagram name="Pagina-1" id="KbwLGhmWEM9IE3JpOT0c">
    <mxGraphModel dx="424" dy="306" grid="1" gridSize="10" guides="1" tooltips="1" connect="1" arrows="1" fold="1" page="1" pageScale="1" pageWidth="827" pageHeight="1169" math="0" shadow="0">
      <root>
        <mxCell id="0" />
        <mxCell id="1" parent="0" />
        <mxCell id="g2gTISk33VEuToaD5dI8-1" value="S&lt;sub&gt;1&lt;/sub&gt;" style="ellipse;whiteSpace=wrap;html=1;aspect=fixed;" vertex="1" parent="1">
          <mxGeometry x="200" y="120" width="40" height="40" as="geometry" />
        </mxCell>
        <mxCell id="g2gTISk33VEuToaD5dI8-2" value="S&lt;sub&gt;0&lt;/sub&gt;" style="ellipse;whiteSpace=wrap;html=1;aspect=fixed;" vertex="1" parent="1">
          <mxGeometry x="80" y="200" width="40" height="40" as="geometry" />
        </mxCell>
        <mxCell id="g2gTISk33VEuToaD5dI8-3" value="S&lt;sub&gt;2&lt;/sub&gt;" style="ellipse;whiteSpace=wrap;html=1;aspect=fixed;" vertex="1" parent="1">
          <mxGeometry x="200" y="200" width="40" height="40" as="geometry" />
        </mxCell>
        <mxCell id="g2gTISk33VEuToaD5dI8-4" value="S&lt;sub&gt;3&lt;/sub&gt;" style="ellipse;whiteSpace=wrap;html=1;aspect=fixed;" vertex="1" parent="1">
          <mxGeometry x="320" y="120" width="40" height="40" as="geometry" />
        </mxCell>
        <mxCell id="g2gTISk33VEuToaD5dI8-5" value="S&lt;sub&gt;4&lt;/sub&gt;" style="ellipse;whiteSpace=wrap;html=1;aspect=fixed;" vertex="1" parent="1">
          <mxGeometry x="320" y="200" width="40" height="40" as="geometry" />
        </mxCell>
        <mxCell id="g2gTISk33VEuToaD5dI8-6" value="S&lt;sub&gt;5&lt;/sub&gt;" style="ellipse;whiteSpace=wrap;html=1;aspect=fixed;" vertex="1" parent="1">
          <mxGeometry x="200" y="280" width="40" height="40" as="geometry" />
        </mxCell>
        <mxCell id="g2gTISk33VEuToaD5dI8-7" value="S&lt;sub&gt;6&lt;/sub&gt;" style="ellipse;whiteSpace=wrap;html=1;aspect=fixed;" vertex="1" parent="1">
          <mxGeometry x="330" y="280" width="40" height="40" as="geometry" />
        </mxCell>
        <mxCell id="g2gTISk33VEuToaD5dI8-10" value="" style="endArrow=classic;html=1;rounded=0;exitX=1;exitY=0;exitDx=0;exitDy=0;entryX=0;entryY=1;entryDx=0;entryDy=0;arcSize=20;jumpSize=6;labelBorderColor=none;textShadow=0;" edge="1" parent="1" source="g2gTISk33VEuToaD5dI8-2" target="g2gTISk33VEuToaD5dI8-1">
          <mxGeometry width="50" height="50" relative="1" as="geometry">
            <mxPoint x="111.14213562373095" y="202.8578643762691" as="sourcePoint" />
            <mxPoint x="202.8578643762691" y="151.14213562373095" as="targetPoint" />
          </mxGeometry>
        </mxCell>
        <mxCell id="g2gTISk33VEuToaD5dI8-52" value="&lt;div&gt;&lt;font style=&quot;font-size: 8px;&quot;&gt;if current_mode = 0&lt;/font&gt;&lt;/div&gt;&lt;div&gt;&lt;font style=&quot;font-size: 8px;&quot;&gt;1&lt;/font&gt;&lt;/div&gt;" style="edgeLabel;html=1;align=center;verticalAlign=middle;resizable=0;points=[];labelBackgroundColor=none;labelBorderColor=none;textShadow=0;rotation=330.6;" vertex="1" connectable="0" parent="g2gTISk33VEuToaD5dI8-10">
          <mxGeometry relative="1" as="geometry">
            <mxPoint x="-1" y="-1" as="offset" />
          </mxGeometry>
        </mxCell>
        <mxCell id="g2gTISk33VEuToaD5dI8-11" value="" style="endArrow=classic;html=1;rounded=0;entryX=0;entryY=0.5;entryDx=0;entryDy=0;" edge="1" parent="1" target="g2gTISk33VEuToaD5dI8-4">
          <mxGeometry width="50" height="50" relative="1" as="geometry">
            <mxPoint x="240" y="140" as="sourcePoint" />
            <mxPoint x="290" y="90" as="targetPoint" />
          </mxGeometry>
        </mxCell>
        <mxCell id="g2gTISk33VEuToaD5dI8-42" value="0" style="edgeLabel;html=1;align=center;verticalAlign=middle;resizable=0;points=[];" vertex="1" connectable="0" parent="g2gTISk33VEuToaD5dI8-11">
          <mxGeometry relative="1" as="geometry">
            <mxPoint as="offset" />
          </mxGeometry>
        </mxCell>
        <mxCell id="g2gTISk33VEuToaD5dI8-18" value="" style="endArrow=classic;html=1;rounded=0;" edge="1" parent="1" source="g2gTISk33VEuToaD5dI8-1" target="g2gTISk33VEuToaD5dI8-5">
          <mxGeometry width="50" height="50" relative="1" as="geometry">
            <mxPoint x="230" y="230" as="sourcePoint" />
            <mxPoint x="280" y="180" as="targetPoint" />
          </mxGeometry>
        </mxCell>
        <mxCell id="g2gTISk33VEuToaD5dI8-37" value="1" style="edgeLabel;html=1;align=center;verticalAlign=middle;resizable=0;points=[];rotation=33.6;" vertex="1" connectable="0" parent="g2gTISk33VEuToaD5dI8-18">
          <mxGeometry relative="1" as="geometry">
            <mxPoint as="offset" />
          </mxGeometry>
        </mxCell>
        <mxCell id="g2gTISk33VEuToaD5dI8-20" value="" style="endArrow=classic;html=1;rounded=0;exitX=1;exitY=0.5;exitDx=0;exitDy=0;entryX=0;entryY=0.5;entryDx=0;entryDy=0;" edge="1" parent="1" source="g2gTISk33VEuToaD5dI8-3" target="g2gTISk33VEuToaD5dI8-5">
          <mxGeometry width="50" height="50" relative="1" as="geometry">
            <mxPoint x="230" y="230" as="sourcePoint" />
            <mxPoint x="280" y="180" as="targetPoint" />
          </mxGeometry>
        </mxCell>
        <mxCell id="g2gTISk33VEuToaD5dI8-41" value="-" style="edgeLabel;html=1;align=center;verticalAlign=middle;resizable=0;points=[];" vertex="1" connectable="0" parent="g2gTISk33VEuToaD5dI8-20">
          <mxGeometry relative="1" as="geometry">
            <mxPoint as="offset" />
          </mxGeometry>
        </mxCell>
        <mxCell id="g2gTISk33VEuToaD5dI8-55" value="(-)" style="edgeLabel;html=1;align=center;verticalAlign=middle;resizable=0;points=[];" vertex="1" connectable="0" parent="g2gTISk33VEuToaD5dI8-20">
          <mxGeometry relative="1" as="geometry">
            <mxPoint as="offset" />
          </mxGeometry>
        </mxCell>
        <mxCell id="g2gTISk33VEuToaD5dI8-23" value="" style="endArrow=classic;html=1;rounded=0;entryX=0.5;entryY=0;entryDx=0;entryDy=0;curved=1;" edge="1" parent="1" target="g2gTISk33VEuToaD5dI8-2">
          <mxGeometry width="50" height="50" relative="1" as="geometry">
            <mxPoint x="340" y="120" as="sourcePoint" />
            <mxPoint x="170" y="110" as="targetPoint" />
            <Array as="points">
              <mxPoint x="160" y="40" />
            </Array>
          </mxGeometry>
        </mxCell>
        <mxCell id="g2gTISk33VEuToaD5dI8-35" value="1/1, 0/0" style="edgeLabel;html=1;align=center;verticalAlign=middle;resizable=0;points=[];" vertex="1" connectable="0" parent="g2gTISk33VEuToaD5dI8-23">
          <mxGeometry x="0.3512" y="40" relative="1" as="geometry">
            <mxPoint x="12" y="-3" as="offset" />
          </mxGeometry>
        </mxCell>
        <mxCell id="g2gTISk33VEuToaD5dI8-25" value="" style="endArrow=classic;html=1;rounded=0;exitX=1;exitY=1;exitDx=0;exitDy=0;entryX=0;entryY=0;entryDx=0;entryDy=0;" edge="1" parent="1" source="g2gTISk33VEuToaD5dI8-2" target="g2gTISk33VEuToaD5dI8-6">
          <mxGeometry width="50" height="50" relative="1" as="geometry">
            <mxPoint x="117.14213562373095" y="231.14213562373095" as="sourcePoint" />
            <mxPoint x="208.8578643762691" y="282.8578643762691" as="targetPoint" />
          </mxGeometry>
        </mxCell>
        <mxCell id="g2gTISk33VEuToaD5dI8-43" value="&lt;div&gt;&lt;font style=&quot;font-size: 8px;&quot;&gt;if current_mode = 1&lt;/font&gt;&lt;/div&gt;&lt;div&gt;&lt;font style=&quot;font-size: 8px;&quot;&gt;1&lt;/font&gt;&lt;/div&gt;" style="edgeLabel;html=1;align=center;verticalAlign=middle;resizable=0;points=[];rotation=29.6;labelBackgroundColor=none;" vertex="1" connectable="0" parent="g2gTISk33VEuToaD5dI8-25">
          <mxGeometry relative="1" as="geometry">
            <mxPoint x="7" y="4" as="offset" />
          </mxGeometry>
        </mxCell>
        <mxCell id="g2gTISk33VEuToaD5dI8-27" value="" style="endArrow=classic;html=1;rounded=0;exitX=1;exitY=0.5;exitDx=0;exitDy=0;entryX=0;entryY=0.5;entryDx=0;entryDy=0;" edge="1" parent="1" source="g2gTISk33VEuToaD5dI8-6" target="g2gTISk33VEuToaD5dI8-7">
          <mxGeometry width="50" height="50" relative="1" as="geometry">
            <mxPoint x="220" y="280" as="sourcePoint" />
            <mxPoint x="270" y="230" as="targetPoint" />
          </mxGeometry>
        </mxCell>
        <mxCell id="g2gTISk33VEuToaD5dI8-49" value="0" style="edgeLabel;html=1;align=center;verticalAlign=middle;resizable=0;points=[];" vertex="1" connectable="0" parent="g2gTISk33VEuToaD5dI8-27">
          <mxGeometry relative="1" as="geometry">
            <mxPoint as="offset" />
          </mxGeometry>
        </mxCell>
        <mxCell id="g2gTISk33VEuToaD5dI8-28" value="" style="endArrow=classic;html=1;rounded=0;exitX=0;exitY=1;exitDx=0;exitDy=0;entryX=1;entryY=1;entryDx=0;entryDy=0;curved=1;" edge="1" parent="1" source="g2gTISk33VEuToaD5dI8-6" target="g2gTISk33VEuToaD5dI8-6">
          <mxGeometry width="50" height="50" relative="1" as="geometry">
            <mxPoint x="200" y="340" as="sourcePoint" />
            <mxPoint x="250" y="290" as="targetPoint" />
            <Array as="points">
              <mxPoint x="210" y="340" />
              <mxPoint x="230" y="340" />
            </Array>
          </mxGeometry>
        </mxCell>
        <mxCell id="g2gTISk33VEuToaD5dI8-45" value="1" style="edgeLabel;html=1;align=center;verticalAlign=middle;resizable=0;points=[];" vertex="1" connectable="0" parent="g2gTISk33VEuToaD5dI8-28">
          <mxGeometry relative="1" as="geometry">
            <mxPoint as="offset" />
          </mxGeometry>
        </mxCell>
        <mxCell id="g2gTISk33VEuToaD5dI8-29" value="" style="endArrow=classic;html=1;rounded=0;exitX=0.5;exitY=1;exitDx=0;exitDy=0;entryX=0.5;entryY=1;entryDx=0;entryDy=0;curved=1;" edge="1" parent="1" source="g2gTISk33VEuToaD5dI8-7" target="g2gTISk33VEuToaD5dI8-2">
          <mxGeometry width="50" height="50" relative="1" as="geometry">
            <mxPoint x="180" y="340" as="sourcePoint" />
            <mxPoint x="230" y="290" as="targetPoint" />
            <Array as="points">
              <mxPoint x="120" y="440" />
            </Array>
          </mxGeometry>
        </mxCell>
        <mxCell id="g2gTISk33VEuToaD5dI8-48" value="1/1, 0/0" style="edgeLabel;html=1;align=center;verticalAlign=middle;resizable=0;points=[];" vertex="1" connectable="0" parent="g2gTISk33VEuToaD5dI8-29">
          <mxGeometry x="-0.3289" y="-30" relative="1" as="geometry">
            <mxPoint x="2" y="-1" as="offset" />
          </mxGeometry>
        </mxCell>
        <mxCell id="g2gTISk33VEuToaD5dI8-30" value="" style="endArrow=classic;html=1;rounded=0;exitX=0;exitY=0;exitDx=0;exitDy=0;entryX=0;entryY=1;entryDx=0;entryDy=0;curved=1;" edge="1" parent="1" source="g2gTISk33VEuToaD5dI8-2" target="g2gTISk33VEuToaD5dI8-2">
          <mxGeometry width="50" height="50" relative="1" as="geometry">
            <mxPoint x="216" y="324" as="sourcePoint" />
            <mxPoint x="244" y="324" as="targetPoint" />
            <Array as="points">
              <mxPoint x="60" y="210" />
              <mxPoint x="60" y="230" />
            </Array>
          </mxGeometry>
        </mxCell>
        <mxCell id="g2gTISk33VEuToaD5dI8-46" value="&lt;div&gt;&lt;font style=&quot;font-size: 8px;&quot;&gt;if current_mode = 1&lt;/font&gt;&lt;/div&gt;&lt;div&gt;0&lt;/div&gt;" style="edgeLabel;html=1;align=center;verticalAlign=middle;resizable=0;points=[];horizontal=0;labelBackgroundColor=none;" vertex="1" connectable="0" parent="g2gTISk33VEuToaD5dI8-30">
          <mxGeometry relative="1" as="geometry">
            <mxPoint x="-14" as="offset" />
          </mxGeometry>
        </mxCell>
        <mxCell id="g2gTISk33VEuToaD5dI8-32" value="" style="endArrow=classic;html=1;rounded=0;exitX=1;exitY=0.5;exitDx=0;exitDy=0;entryX=0;entryY=0.5;entryDx=0;entryDy=0;" edge="1" parent="1" source="g2gTISk33VEuToaD5dI8-2" target="g2gTISk33VEuToaD5dI8-3">
          <mxGeometry width="50" height="50" relative="1" as="geometry">
            <mxPoint x="119.99999999999972" y="215" as="sourcePoint" />
            <mxPoint x="200" y="215" as="targetPoint" />
          </mxGeometry>
        </mxCell>
        <mxCell id="g2gTISk33VEuToaD5dI8-39" value="&lt;div&gt;&lt;font style=&quot;font-size: 8px;&quot;&gt;if current_mode = 0&lt;/font&gt;&lt;/div&gt;&lt;div&gt;0&lt;/div&gt;" style="edgeLabel;html=1;align=center;verticalAlign=middle;resizable=0;points=[];labelBackgroundColor=none;" vertex="1" connectable="0" parent="g2gTISk33VEuToaD5dI8-32">
          <mxGeometry relative="1" as="geometry">
            <mxPoint x="-4" as="offset" />
          </mxGeometry>
        </mxCell>
        <mxCell id="g2gTISk33VEuToaD5dI8-34" value="" style="endArrow=classic;html=1;rounded=0;exitX=0;exitY=1;exitDx=0;exitDy=0;entryX=0.978;entryY=0.689;entryDx=0;entryDy=0;entryPerimeter=0;curved=1;" edge="1" parent="1" source="g2gTISk33VEuToaD5dI8-5" target="g2gTISk33VEuToaD5dI8-2">
          <mxGeometry width="50" height="50" relative="1" as="geometry">
            <mxPoint x="230" y="270" as="sourcePoint" />
            <mxPoint x="280" y="220" as="targetPoint" />
            <Array as="points">
              <mxPoint x="220" y="280" />
            </Array>
          </mxGeometry>
        </mxCell>
        <mxCell id="g2gTISk33VEuToaD5dI8-38" value="(-)/0" style="edgeLabel;html=1;align=center;verticalAlign=middle;resizable=0;points=[];" vertex="1" connectable="0" parent="g2gTISk33VEuToaD5dI8-34">
          <mxGeometry x="-0.1153" y="-18" relative="1" as="geometry">
            <mxPoint y="-2" as="offset" />
          </mxGeometry>
        </mxCell>
        <mxCell id="g2gTISk33VEuToaD5dI8-59" value="" style="endArrow=classic;html=1;rounded=0;" edge="1" parent="1">
          <mxGeometry width="50" height="50" relative="1" as="geometry">
            <mxPoint x="71" y="182" as="sourcePoint" />
            <mxPoint x="91" y="202" as="targetPoint" />
          </mxGeometry>
        </mxCell>
        <mxCell id="g2gTISk33VEuToaD5dI8-60" value="reset, M" style="text;html=1;align=center;verticalAlign=middle;whiteSpace=wrap;rounded=0;fontSize=8;" vertex="1" parent="1">
          <mxGeometry x="37" y="156" width="60" height="30" as="geometry" />
        </mxCell>
      </root>
    </mxGraphModel>
  </diagram>
</mxfile>
